<?xml version="1.0" encoding="UTF-8" standalone="no"?>
<!DOCTYPE svg PUBLIC "-//W3C//DTD SVG 1.1//EN" "http://www.w3.org/Graphics/SVG/1.1/DTD/svg11.dtd">
<svg xmlns:dc="http://purl.org/dc/elements/1.1/" xmlns="http://www.w3.org/2000/svg" xmlns:xl="http://www.w3.org/1999/xlink" version="1.1" viewBox="220 1017.8026 483.82165 188.39476" width="483.82165" height="188.39476">
  <defs/>
  <g id="Canvas_1" stroke-opacity="1" stroke-dasharray="none" fill="none" fill-opacity="1" stroke="none">
    <title>Canvas 1</title>
    <g id="Canvas_1_Layer_1">
      <title>Layer 1</title>
      <g id="Group_100">
        <g id="Group_96">
          <g id="Graphic_99">
            <path d="M 428.93004 1047.1492 L 459.83966 1038.867 L 492.9685 1162.5055 L 462.0589 1170.7878 Z" fill="#005493"/>
            <path d="M 428.93004 1047.1492 L 459.83966 1038.867 L 492.9685 1162.5055 L 462.0589 1170.7878 Z" stroke="#005493" stroke-linecap="round" stroke-linejoin="round" stroke-width="1"/>
          </g>
          <g id="Graphic_98">
            <path d="M 492.9685 1162.5055 L 554.78775 1145.9411 L 563.06996 1176.8508 L 501.2507 1193.4152 Z" fill="#005493"/>
            <path d="M 492.9685 1162.5055 L 554.78775 1145.9411 L 563.06996 1176.8508 L 501.2507 1193.4152 Z" stroke="#005493" stroke-linecap="round" stroke-linejoin="round" stroke-width="1"/>
          </g>
          <g id="Graphic_97">
            <path d="M 492.9685 1162.5055 L 501.2507 1193.4152 C 484.1798 1197.9893 466.633 1187.8587 462.0589 1170.7878 L 492.9685 1162.5055 Z" fill="#005493"/>
            <path d="M 492.9685 1162.5055 L 501.2507 1193.4152 C 484.1798 1197.9893 466.633 1187.8587 462.0589 1170.7878 L 492.9685 1162.5055 Z" stroke="#005493" stroke-linecap="round" stroke-linejoin="round" stroke-width="1"/>
          </g>
        </g>
        <g id="Graphic_95">
          <path d="M 539.83966 1038.867 L 570.7493 1030.5848 L 612.16034 1185.133 L 581.2507 1193.4152 Z" fill="#005493"/>
          <path d="M 539.83966 1038.867 L 570.7493 1030.5848 L 612.16034 1185.133 L 581.2507 1193.4152 Z" stroke="#005493" stroke-linecap="round" stroke-linejoin="round" stroke-width="1"/>
        </g>
        <g id="Group_85">
          <g id="Graphic_94">
            <path d="M 325.21225 1078.0589 L 356.12187 1069.7767 L 364.4041 1100.6863 L 333.49446 1108.9685 Z" fill="#005493"/>
            <path d="M 325.21225 1078.0589 L 356.12187 1069.7767 L 364.4041 1100.6863 L 333.49446 1108.9685 Z" stroke="#005493" stroke-linecap="round" stroke-linejoin="round" stroke-width="1"/>
          </g>
          <g id="Graphic_93">
            <path d="M 347.83966 1038.867 L 409.6589 1022.3026 L 417.94113 1053.2122 L 356.12187 1069.7767 Z" fill="#005493"/>
            <path d="M 347.83966 1038.867 L 409.6589 1022.3026 L 417.94113 1053.2122 L 356.12187 1069.7767 Z" stroke="#005493" stroke-linecap="round" stroke-linejoin="round" stroke-width="1"/>
          </g>
          <g id="Graphic_92">
            <path d="M 364.4041 1100.6863 L 395.3137 1092.4041 L 403.5959 1123.3137 L 372.6863 1131.5959 Z" fill="#005493"/>
            <path d="M 364.4041 1100.6863 L 395.3137 1092.4041 L 403.5959 1123.3137 L 372.6863 1131.5959 Z" stroke="#005493" stroke-linecap="round" stroke-linejoin="round" stroke-width="1"/>
          </g>
          <g id="Graphic_91">
            <path d="M 350.05887 1170.7878 L 411.87813 1154.2233 L 420.16034 1185.133 L 358.3411 1201.6974 Z" fill="#005493"/>
            <path d="M 350.05887 1170.7878 L 411.87813 1154.2233 L 420.16034 1185.133 L 358.3411 1201.6974 Z" stroke="#005493" stroke-linecap="round" stroke-linejoin="round" stroke-width="1"/>
          </g>
          <g id="Graphic_90">
            <path d="M 403.5959 1123.3137 L 434.50554 1115.0315 L 442.78775 1145.9411 L 411.87813 1154.2233 Z" fill="#005493"/>
            <path d="M 403.5959 1123.3137 L 434.50554 1115.0315 L 442.78775 1145.9411 L 411.87813 1154.2233 Z" stroke="#005493" stroke-linecap="round" stroke-linejoin="round" stroke-width="1"/>
          </g>
          <g id="Graphic_89">
            <path d="M 364.4041 1100.6863 L 372.6863 1131.5959 C 355.61538 1136.17 338.0686 1126.0394 333.49446 1108.9685 L 364.4041 1100.6863 Z" fill="#005493"/>
            <path d="M 364.4041 1100.6863 L 372.6863 1131.5959 C 355.61538 1136.17 338.0686 1126.0394 333.49446 1108.9685 L 364.4041 1100.6863 Z" stroke="#005493" stroke-linecap="round" stroke-linejoin="round" stroke-width="1"/>
          </g>
          <g id="Graphic_88">
            <path d="M 356.12187 1069.7767 L 325.21225 1078.0589 C 320.6381 1060.988 330.76875 1043.4412 347.83966 1038.867 L 356.12187 1069.7767 Z" fill="#005493"/>
            <path d="M 356.12187 1069.7767 L 325.21225 1078.0589 C 320.6381 1060.988 330.76875 1043.4412 347.83966 1038.867 L 356.12187 1069.7767 Z" stroke="#005493" stroke-linecap="round" stroke-linejoin="round" stroke-width="1"/>
          </g>
          <g id="Graphic_87">
            <path d="M 411.87813 1154.2233 L 442.78775 1145.9411 C 447.3619 1163.012 437.23125 1180.5588 420.16034 1185.133 L 411.87813 1154.2233 Z" fill="#005493"/>
            <path d="M 411.87813 1154.2233 L 442.78775 1145.9411 C 447.3619 1163.012 437.23125 1180.5588 420.16034 1185.133 L 411.87813 1154.2233 Z" stroke="#005493" stroke-linecap="round" stroke-linejoin="round" stroke-width="1"/>
          </g>
          <g id="Graphic_86">
            <path d="M 403.5959 1123.3137 L 395.3137 1092.4041 C 412.3846 1087.83 429.9314 1097.9606 434.50554 1115.0315 L 403.5959 1123.3137 Z" fill="#005493"/>
            <path d="M 403.5959 1123.3137 L 395.3137 1092.4041 C 412.3846 1087.83 429.9314 1097.9606 434.50554 1115.0315 L 403.5959 1123.3137 Z" stroke="#005493" stroke-linecap="round" stroke-linejoin="round" stroke-width="1"/>
          </g>
        </g>
        <g id="Group_78">
          <g id="Graphic_84">
            <path d="M 619.8397 1038.867 L 650.7493 1030.5848 L 659.0315 1061.4945 L 628.1219 1069.7767 Z" fill="#005493"/>
            <path d="M 619.8397 1038.867 L 650.7493 1030.5848 L 659.0315 1061.4945 L 628.1219 1069.7767 Z" stroke="#005493" stroke-linecap="round" stroke-linejoin="round" stroke-width="1"/>
          </g>
          <g id="Graphic_83">
            <path d="M 636.4041 1100.6863 L 667.3137 1092.4041 L 675.5959 1123.3137 L 644.6863 1131.5959 Z" fill="#005493"/>
            <path d="M 636.4041 1100.6863 L 667.3137 1092.4041 L 675.5959 1123.3137 L 644.6863 1131.5959 Z" stroke="#005493" stroke-linecap="round" stroke-linejoin="round" stroke-width="1"/>
          </g>
          <g id="Graphic_82">
            <path d="M 659.0315 1061.4945 L 689.9411 1053.2122 L 698.2233 1084.1219 L 667.3137 1092.4041 Z" fill="#005493"/>
            <path d="M 659.0315 1061.4945 L 689.9411 1053.2122 L 698.2233 1084.1219 L 667.3137 1092.4041 Z" stroke="#005493" stroke-linecap="round" stroke-linejoin="round" stroke-width="1"/>
          </g>
          <g id="Graphic_81">
            <path d="M 667.3137 1092.4041 L 698.2233 1084.1219 C 702.7975 1101.1928 692.6668 1118.7396 675.5959 1123.3137 L 667.3137 1092.4041 Z" fill="#005493"/>
            <path d="M 667.3137 1092.4041 L 698.2233 1084.1219 C 702.7975 1101.1928 692.6668 1118.7396 675.5959 1123.3137 L 667.3137 1092.4041 Z" stroke="#005493" stroke-linecap="round" stroke-linejoin="round" stroke-width="1"/>
          </g>
          <g id="Graphic_80">
            <path d="M 659.0315 1061.4945 L 650.7493 1030.5848 C 667.8202 1026.0107 685.367 1036.1413 689.9411 1053.2122 L 659.0315 1061.4945 Z" fill="#005493"/>
            <path d="M 659.0315 1061.4945 L 650.7493 1030.5848 C 667.8202 1026.0107 685.367 1036.1413 689.9411 1053.2122 L 659.0315 1061.4945 Z" stroke="#005493" stroke-linecap="round" stroke-linejoin="round" stroke-width="1"/>
          </g>
          <g id="Graphic_79">
            <path d="M 588.93004 1047.1492 L 619.8397 1038.867 L 661.2507 1193.4152 L 630.3411 1201.6974 Z" fill="#005493"/>
            <path d="M 588.93004 1047.1492 L 619.8397 1038.867 L 661.2507 1193.4152 L 630.3411 1201.6974 Z" stroke="#005493" stroke-linecap="round" stroke-linejoin="round" stroke-width="1"/>
          </g>
        </g>
        <g id="Graphic_77">
          <rect x="240" y="1192" width="96" height="8" fill="#005493"/>
        </g>
        <g id="Graphic_76">
          <rect x="224" y="1176" width="96" height="8" fill="#005493"/>
        </g>
      </g>
    </g>
  </g>
</svg>
