<?xml version="1.0" encoding="UTF-8" standalone="no"?>
<!DOCTYPE svg PUBLIC "-//W3C//DTD SVG 1.1//EN" "http://www.w3.org/Graphics/SVG/1.1/DTD/svg11.dtd">
<svg xmlns:dc="http://purl.org/dc/elements/1.1/" xmlns="http://www.w3.org/2000/svg" xmlns:xl="http://www.w3.org/1999/xlink" version="1.1" viewBox="220 1017.8026 273.4585 109" width="273.4585" height="109">
  <defs/>
  <g id="Canvas_1" stroke-opacity="1" stroke-dasharray="none" fill="none" fill-opacity="1" stroke="none">
    <title>Canvas 1</title>
    <g id="Canvas_1_Layer_1">
      <title>Layer 1</title>
      <g id="Group_100">
        <g id="Group_96">
          <g id="Graphic_99">
            <path d="M 338.23413 1036.1529 L 355.46408 1031.5361 L 373.9311 1100.4559 L 356.70113 1105.0727 Z" fill="#005493"/>
            <path d="M 338.23413 1036.1529 L 355.46408 1031.5361 L 373.9311 1100.4559 L 356.70113 1105.0727 Z" stroke="#005493" stroke-linecap="round" stroke-linejoin="round" stroke-width="1"/>
          </g>
          <g id="Graphic_98">
            <path d="M 373.9311 1100.4559 L 408.391 1091.2224 L 413.00773 1108.4524 L 378.54783 1117.6859 Z" fill="#005493"/>
            <path d="M 373.9311 1100.4559 L 408.391 1091.2224 L 413.00773 1108.4524 L 378.54783 1117.6859 Z" stroke="#005493" stroke-linecap="round" stroke-linejoin="round" stroke-width="1"/>
          </g>
          <g id="Graphic_97">
            <path d="M 373.9311 1100.4559 L 378.54783 1117.6859 C 369.032 1120.2356 359.2509 1114.5885 356.70113 1105.0727 L 373.9311 1100.4559 Z" fill="#005493"/>
            <path d="M 373.9311 1100.4559 L 378.54783 1117.6859 C 369.032 1120.2356 359.2509 1114.5885 356.70113 1105.0727 L 373.9311 1100.4559 Z" stroke="#005493" stroke-linecap="round" stroke-linejoin="round" stroke-width="1"/>
          </g>
        </g>
        <g id="Graphic_95">
          <path d="M 400.05847 1031.5361 L 417.2884 1026.9194 L 440.37217 1113.0691 L 423.1422 1117.6859 Z" fill="#005493"/>
          <path d="M 400.05847 1031.5361 L 417.2884 1026.9194 L 440.37217 1113.0691 L 423.1422 1117.6859 Z" stroke="#005493" stroke-linecap="round" stroke-linejoin="round" stroke-width="1"/>
        </g>
        <g id="Group_85">
          <g id="Graphic_94">
            <path d="M 280.41873 1053.3828 L 297.64868 1048.7661 L 302.26543 1065.996 L 285.03548 1070.6128 Z" fill="#005493"/>
            <path d="M 280.41873 1053.3828 L 297.64868 1048.7661 L 302.26543 1065.996 L 285.03548 1070.6128 Z" stroke="#005493" stroke-linecap="round" stroke-linejoin="round" stroke-width="1"/>
          </g>
          <g id="Graphic_93">
            <path d="M 293.03193 1031.5361 L 327.49183 1022.3026 L 332.10858 1039.5326 L 297.64868 1048.7661 Z" fill="#005493"/>
            <path d="M 293.03193 1031.5361 L 327.49183 1022.3026 L 332.10858 1039.5326 L 297.64868 1048.7661 Z" stroke="#005493" stroke-linecap="round" stroke-linejoin="round" stroke-width="1"/>
          </g>
          <g id="Graphic_92">
            <path d="M 302.26543 1065.996 L 319.49538 1061.3793 L 324.11213 1078.6092 L 306.8822 1083.226 Z" fill="#005493"/>
            <path d="M 302.26543 1065.996 L 319.49538 1061.3793 L 324.11213 1078.6092 L 306.8822 1083.226 Z" stroke="#005493" stroke-linecap="round" stroke-linejoin="round" stroke-width="1"/>
          </g>
          <g id="Graphic_91">
            <path d="M 294.269 1105.0727 L 328.7289 1095.8392 L 333.34563 1113.0691 L 298.88573 1122.3026 Z" fill="#005493"/>
            <path d="M 294.269 1105.0727 L 328.7289 1095.8392 L 333.34563 1113.0691 L 298.88573 1122.3026 Z" stroke="#005493" stroke-linecap="round" stroke-linejoin="round" stroke-width="1"/>
          </g>
          <g id="Graphic_90">
            <path d="M 324.11213 1078.6092 L 341.3421 1073.9925 L 345.95883 1091.2224 L 328.7289 1095.8392 Z" fill="#005493"/>
            <path d="M 324.11213 1078.6092 L 341.3421 1073.9925 L 345.95883 1091.2224 L 328.7289 1095.8392 Z" stroke="#005493" stroke-linecap="round" stroke-linejoin="round" stroke-width="1"/>
          </g>
          <g id="Graphic_89">
            <path d="M 302.26543 1065.996 L 306.8822 1083.226 C 297.36634 1085.7757 287.58524 1080.1286 285.03548 1070.6128 L 302.26543 1065.996 Z" fill="#005493"/>
            <path d="M 302.26543 1065.996 L 306.8822 1083.226 C 297.36634 1085.7757 287.58524 1080.1286 285.03548 1070.6128 L 302.26543 1065.996 Z" stroke="#005493" stroke-linecap="round" stroke-linejoin="round" stroke-width="1"/>
          </g>
          <g id="Graphic_88">
            <path d="M 297.64868 1048.7661 L 280.41873 1053.3828 C 277.86897 1043.867 283.5161 1034.0859 293.03193 1031.5361 L 297.64868 1048.7661 Z" fill="#005493"/>
            <path d="M 297.64868 1048.7661 L 280.41873 1053.3828 C 277.86897 1043.867 283.5161 1034.0859 293.03193 1031.5361 L 297.64868 1048.7661 Z" stroke="#005493" stroke-linecap="round" stroke-linejoin="round" stroke-width="1"/>
          </g>
          <g id="Graphic_87">
            <path d="M 328.7289 1095.8392 L 345.95883 1091.2224 C 348.5086 1100.7383 342.86147 1110.5194 333.34563 1113.0691 L 328.7289 1095.8392 Z" fill="#005493"/>
            <path d="M 328.7289 1095.8392 L 345.95883 1091.2224 C 348.5086 1100.7383 342.86147 1110.5194 333.34563 1113.0691 L 328.7289 1095.8392 Z" stroke="#005493" stroke-linecap="round" stroke-linejoin="round" stroke-width="1"/>
          </g>
          <g id="Graphic_86">
            <path d="M 324.11213 1078.6092 L 319.49538 1061.3793 C 329.0112 1058.8295 338.7923 1064.4766 341.3421 1073.9925 L 324.11213 1078.6092 Z" fill="#005493"/>
            <path d="M 324.11213 1078.6092 L 319.49538 1061.3793 C 329.0112 1058.8295 338.7923 1064.4766 341.3421 1073.9925 L 324.11213 1078.6092 Z" stroke="#005493" stroke-linecap="round" stroke-linejoin="round" stroke-width="1"/>
          </g>
        </g>
        <g id="Group_78">
          <g id="Graphic_84">
            <path d="M 444.65286 1031.5361 L 461.8828 1026.9194 L 466.49956 1044.1493 L 449.2696 1048.7661 Z" fill="#005493"/>
            <path d="M 444.65286 1031.5361 L 461.8828 1026.9194 L 466.49956 1044.1493 L 449.2696 1048.7661 Z" stroke="#005493" stroke-linecap="round" stroke-linejoin="round" stroke-width="1"/>
          </g>
          <g id="Graphic_83">
            <path d="M 453.88636 1065.996 L 471.1163 1061.3793 L 475.73306 1078.6092 L 458.5031 1083.226 Z" fill="#005493"/>
            <path d="M 453.88636 1065.996 L 471.1163 1061.3793 L 475.73306 1078.6092 L 458.5031 1083.226 Z" stroke="#005493" stroke-linecap="round" stroke-linejoin="round" stroke-width="1"/>
          </g>
          <g id="Graphic_82">
            <path d="M 466.49956 1044.1493 L 483.7295 1039.5326 L 488.34626 1056.7625 L 471.1163 1061.3793 Z" fill="#005493"/>
            <path d="M 466.49956 1044.1493 L 483.7295 1039.5326 L 488.34626 1056.7625 L 471.1163 1061.3793 Z" stroke="#005493" stroke-linecap="round" stroke-linejoin="round" stroke-width="1"/>
          </g>
          <g id="Graphic_81">
            <path d="M 471.1163 1061.3793 L 488.34626 1056.7625 C 490.896 1066.2784 485.2489 1076.0595 475.73306 1078.6092 L 471.1163 1061.3793 Z" fill="#005493"/>
            <path d="M 471.1163 1061.3793 L 488.34626 1056.7625 C 490.896 1066.2784 485.2489 1076.0595 475.73306 1078.6092 L 471.1163 1061.3793 Z" stroke="#005493" stroke-linecap="round" stroke-linejoin="round" stroke-width="1"/>
          </g>
          <g id="Graphic_80">
            <path d="M 466.49956 1044.1493 L 461.8828 1026.9194 C 471.39864 1024.3696 481.17974 1030.0167 483.7295 1039.5326 L 466.49956 1044.1493 Z" fill="#005493"/>
            <path d="M 466.49956 1044.1493 L 461.8828 1026.9194 C 471.39864 1024.3696 481.17974 1030.0167 483.7295 1039.5326 L 466.49956 1044.1493 Z" stroke="#005493" stroke-linecap="round" stroke-linejoin="round" stroke-width="1"/>
          </g>
          <g id="Graphic_79">
            <path d="M 427.4229 1036.1529 L 444.65286 1031.5361 L 467.7366 1117.6859 L 450.50666 1122.3026 Z" fill="#005493"/>
            <path d="M 427.4229 1036.1529 L 444.65286 1031.5361 L 467.7366 1117.6859 L 450.50666 1122.3026 Z" stroke="#005493" stroke-linecap="round" stroke-linejoin="round" stroke-width="1"/>
          </g>
        </g>
        <g id="Graphic_77">
          <rect x="232.91888" y="1116.897" width="53.51327" height="4.459439" fill="#005493"/>
        </g>
        <g id="Graphic_76">
          <rect x="224" y="1107.9781" width="53.51327" height="4.459439" fill="#005493"/>
        </g>
      </g>
    </g>
  </g>
</svg>
